# Blender v3.0.0 OBJ File: ''
# www.blender.org
o Cone
v 0.811652 0.009132 2.067677
v 0.764674 0.186721 2.067073
v 0.738122 0.341571 2.178835
v 0.717763 0.442292 2.218499
v 0.612132 0.549562 2.193866
v 0.457012 0.653779 2.017704
v 0.320797 0.741218 2.284314
v 0.165900 0.808968 2.116398
v -0.002666 0.838912 1.899725
v -0.169558 0.822804 2.084383
v -0.356801 0.782117 2.185041
v -0.473220 0.700311 2.173958
v -0.584255 0.592934 2.131202
v -0.684854 0.468212 2.137245
v -0.754102 0.317917 2.278900
v -0.836461 0.168687 2.448107
v -0.864591 0.015092 2.344283
v -0.823993 -0.144012 2.087832
v -0.763012 -0.332739 2.000813
v -0.699016 -0.476005 2.027468
v -0.569304 -0.581707 2.141264
v -0.438765 -0.710133 2.338826
v -0.306428 -0.769143 2.126842
v -0.172914 -0.784190 2.181408
v -0.036524 -0.785569 2.074568
v 0.147697 -0.796357 2.029524
v 0.312589 -0.766912 2.001416
v 0.447072 -0.710792 1.864016
v 0.576478 -0.586576 1.948433
v 0.678594 -0.436344 2.117066
v 0.754011 -0.310553 2.131134
v 0.791354 -0.171728 2.132792
v 0.000465 0.015755 -3.300149
vt 0.441259 0.492092
vt 0.441259 0.737291
vt 0.387672 0.505492
vt 0.387672 0.970774
vt 0.433365 0.737291
vt 0.433365 0.983182
vt 0.059717 0.989292
vt 0.088740 0.745120
vt 0.088740 1.000000
vt 0.689569 0.736191
vt 0.689569 0.991071
vt 0.645453 0.746327
vt 0.171681 0.492092
vt 0.171681 0.740780
vt 0.117306 0.506064
vt 0.490798 0.971330
vt 0.538920 0.735253
vt 0.538920 0.979323
vt 0.645453 0.736191
vt 0.646016 0.492122
vt 0.696273 0.736191
vt 0.544606 0.736088
vt 0.595364 0.492122
vt 0.595364 0.744842
vt 0.595364 0.739828
vt 0.645453 0.492122
vt 0.645453 0.745173
vt 0.059717 0.745120
vt 0.063099 0.492092
vt 0.117306 0.745120
vt 0.042034 0.740058
vt 0.042034 0.998828
vt 0.000000 0.748111
vt 0.333018 0.985297
vt 0.379502 0.735367
vt 0.379502 0.985493
vt 0.278236 0.983527
vt 0.307835 0.735158
vt 0.326413 0.983527
vt 0.841457 0.736197
vt 0.891051 0.492122
vt 0.891051 0.737617
vt 0.441259 0.732692
vt 0.490038 0.492092
vt 0.490038 0.747865
vt 0.938095 0.492122
vt 0.938095 0.747895
vt 0.891051 0.493186
vt 0.744102 0.492122
vt 0.744102 0.751139
vt 0.696273 0.505297
vt 0.000000 0.740058
vt 0.035191 0.492092
vt 0.059717 0.740058
vt 0.938095 0.736936
vt 0.984518 0.492122
vt 0.984518 0.745254
vt 0.841457 0.492122
vt 0.841457 0.745254
vt 0.793302 0.506562
vt 0.171681 0.729616
vt 0.225298 0.492092
vt 0.225298 0.741728
vt 0.117306 0.986582
vt 0.160884 0.740780
vt 0.160884 0.988673
vt 0.264303 0.744774
vt 0.264303 0.992668
vt 0.225298 0.755377
vt 0.584789 0.744842
vt 0.584789 0.985317
vt 0.544606 0.753011
vt 0.490798 0.721655
vt 0.544606 0.492122
vt 0.544606 0.735253
vt 0.744102 0.730223
vt 0.793301 0.492122
vt 0.793301 0.741014
vt 0.841457 0.986509
vt 0.841600 0.737617
vt 0.885203 0.986509
vt 0.278236 0.492092
vt 0.278236 0.744774
vt 0.225298 0.502808
vt 0.278236 0.735158
vt 0.325873 0.492092
vt 0.333018 0.735158
vt 0.744102 0.980245
vt 0.787695 0.741014
vt 0.787695 0.987002
vt 0.046267 0.124245
vt 0.208983 0.485249
vt 0.011295 0.292247
vt 0.214578 0.741728
vt 0.214578 0.987716
vt 0.171681 0.747054
vt 0.333018 0.735367
vt 0.357017 0.492092
vt 0.387672 0.735367
vt 0.827819 0.477237
vt 0.786694 0.490548
vt 0.740362 0.248962
vt 0.336173 0.014461
vt 0.385251 0.038688
vt 0.422569 0.079435
vt 0.457451 0.111357
vt 0.490798 0.233182
vt 0.479638 0.132890
vt 0.489626 0.177048
vt 0.490798 0.281962
vt 0.482776 0.332117
vt 0.431767 0.419263
vt 0.306195 0.486893
vt 0.462963 0.379572
vt 0.391043 0.460081
vt 0.351418 0.476251
vt 0.258278 0.492092
vt 0.157827 0.481907
vt 0.080699 0.427813
vt 0.114377 0.464033
vt 0.250869 0.000000
vt 0.294965 0.001356
vt 0.143776 0.013916
vt 0.196247 0.001376
vt 0.107719 0.038885
vt 0.073471 0.075847
vt 0.006566 0.195248
vt 0.024453 0.159029
vt 0.000000 0.238408
vt 0.042836 0.381681
vt 0.016972 0.342213
vt 0.490798 0.254961
vt 0.501618 0.201068
vt 0.506923 0.151075
vt 0.532546 0.111480
vt 0.570236 0.065160
vt 0.603957 0.028772
vt 0.647397 0.010682
vt 0.698354 0.007087
vt 0.747460 0.000000
vt 0.795380 0.004961
vt 0.840683 0.015378
vt 0.880388 0.031352
vt 0.921215 0.071968
vt 0.952430 0.111504
vt 0.972691 0.158858
vt 0.981133 0.208972
vt 0.981133 0.257753
vt 0.980423 0.313891
vt 0.970694 0.358098
vt 0.948590 0.379741
vt 0.913781 0.411837
vt 0.876690 0.452768
vt 0.497385 0.298089
vt 0.537392 0.368895
vt 0.515507 0.334219
vt 0.599197 0.453948
vt 0.564796 0.417157
vt 0.687838 0.491018
vt 0.635241 0.478739
vt 0.742608 0.492122
vn 0.9568 0.2526 -0.1443
vn 0.9527 0.2674 -0.1442
vn 0.9575 0.2502 -0.1438
vn 0.7215 0.6769 -0.1461
vn 0.6600 0.7371 -0.1451
vn 0.3259 0.9350 -0.1402
vn 0.5197 0.8429 -0.1393
vn 0.3521 0.9245 -0.1461
vn -0.2593 0.9539 -0.1512
vn -0.2867 0.9461 -0.1509
vn -0.5588 0.8156 -0.1503
vn -0.6571 0.7389 -0.1493
vn -0.7732 0.6165 -0.1488
vn -0.9433 0.2991 -0.1438
vn -0.9264 0.3478 -0.1441
vn -0.9510 0.2727 -0.1457
vn -0.9884 -0.0080 -0.1515
vn -0.9588 -0.2389 -0.1538
vn -0.8907 -0.4269 -0.1563
vn -0.5437 -0.8262 -0.1476
vn -0.5702 -0.8080 -0.1484
vn -0.5909 -0.7930 -0.1481
vn -0.0518 -0.9880 -0.1458
vn -0.1252 -0.9812 -0.1471
vn -0.0937 -0.9846 -0.1474
vn 0.1484 -0.9770 -0.1530
vn 0.2408 -0.9580 -0.1556
vn 0.7352 -0.6596 -0.1564
vn 0.8871 -0.4374 -0.1475
vn 0.8554 -0.4962 -0.1485
vn 0.0715 -0.1365 0.9881
vn 0.9555 -0.2553 -0.1479
vn 0.9756 -0.1626 -0.1476
vn 0.6760 0.1813 0.7142
vn -0.7664 -0.4571 0.4513
vn -0.5716 -0.3981 0.7175
vn -0.7755 -0.4978 0.3884
vn 0.3269 -0.8358 0.4411
vn 0.0028 0.9282 0.3720
vn -0.2268 0.5658 0.7927
vn 0.0301 0.9930 0.1138
vn 0.4469 -0.7098 0.5445
vn 0.4464 -0.6890 0.5710
vn -0.7391 0.6100 0.2859
vn 0.9392 -0.2427 0.2431
vn 0.8250 -0.4123 0.3864
vn -0.0658 0.0619 0.9959
vn -0.4326 0.1313 0.8920
vn 0.2205 -0.0371 0.9747
vn -0.2886 0.0662 0.9551
vn 0.5800 -0.7749 0.2512
vn 0.4618 -0.7826 0.4175
vn 0.1822 -0.4776 0.8595
vn 0.1575 0.0592 0.9857
vn -0.1753 -0.9713 0.1610
vn 0.3671 0.8095 0.4582
vn -0.1047 0.0939 0.9901
vn -0.2270 0.5703 0.7895
vn 0.0916 -0.3924 0.9152
vn -0.7355 -0.2086 0.6446
vn 0.4120 0.8640 0.2894
vn -0.7570 -0.2480 0.6045
vn -0.8250 0.4123 -0.3864
vn -0.9808 0.1294 -0.1462
vn -0.4469 0.7098 -0.5445
vn -0.4072 0.9013 -0.1479
vn 0.5716 0.3981 -0.7175
vn 0.8417 0.5203 -0.1443
s off
f 1/1/1 33/2/1 2/3/1
f 2/4/2 33/5/2 3/6/2
f 3/7/3 33/8/3 4/9/3
f 4/10/4 33/11/4 5/12/4
f 5/13/5 33/14/5 6/15/5
f 6/16/6 33/17/6 7/18/6
f 7/19/7 33/20/7 8/21/7
f 8/22/8 33/23/8 9/24/8
f 9/25/9 33/26/9 10/27/9
f 10/28/10 33/29/10 11/30/10
f 11/31/11 33/32/11 12/33/11
f 12/34/12 33/35/12 13/36/12
f 13/37/13 33/38/13 14/39/13
f 14/40/14 33/41/14 15/42/14
f 15/43/15 33/44/15 16/45/15
f 16/46/16 33/47/16 17/48/16
f 17/49/17 33/50/17 18/51/17
f 18/52/18 33/53/18 19/54/18
f 19/55/19 33/56/19 20/57/19
f 20/58/20 33/59/20 21/60/20
f 21/61/21 33/62/21 22/63/21
f 22/64/22 33/65/22 23/66/22
f 23/67/23 33/68/23 24/69/23
f 24/70/24 33/71/24 25/72/24
f 25/73/25 33/74/25 26/75/25
f 26/76/26 33/77/26 27/78/26
f 27/79/27 33/80/27 28/81/27
f 28/82/28 33/83/28 29/84/28
f 29/85/29 33/86/29 30/87/29
f 30/88/30 33/89/30 31/90/30
f 25/91/31 15/92/31 21/93/31
f 31/94/32 33/95/32 32/96/32
f 32/97/33 33/98/33 1/99/33
f 32/100/32 31/101/32 33/102/32
f 32/103/34 1/104/34 2/105/34
f 2/105/35 3/106/35 6/107/35
f 3/106/36 4/108/36 5/109/36
f 6/107/37 3/106/37 5/109/37
f 6/107/38 7/110/38 15/92/38
f 7/110/39 8/111/39 10/112/39
f 15/92/40 7/110/40 13/113/40
f 8/111/41 9/114/41 10/112/41
f 10/112/42 11/115/42 12/116/42
f 12/116/43 13/113/43 10/112/43
f 13/113/44 14/117/44 15/92/44
f 15/92/45 16/118/45 18/119/45
f 16/118/46 17/120/46 18/119/46
f 2/105/47 6/107/47 25/91/47
f 32/103/48 2/105/48 30/121/48
f 25/91/49 6/107/49 15/92/49
f 30/121/50 31/122/50 32/103/50
f 28/123/51 29/124/51 27/125/51
f 29/124/52 30/121/52 26/126/52
f 26/126/53 30/121/53 25/91/53
f 26/126/54 27/125/54 29/124/54
f 23/127/55 24/128/55 22/129/55
f 24/128/56 25/91/56 21/93/56
f 25/91/57 30/121/57 2/105/57
f 10/112/58 13/113/58 7/110/58
f 18/119/59 19/130/59 15/92/59
f 19/130/60 20/131/60 21/93/60
f 21/93/61 22/129/61 24/128/61
f 19/130/62 21/93/62 15/92/62
f 22/132/21 21/133/21 33/102/21
f 33/102/19 20/134/19 19/135/19
f 19/135/18 18/136/18 33/102/18
f 18/136/63 17/137/63 16/138/63
f 33/102/64 18/136/64 16/138/64
f 16/138/15 15/139/15 33/102/15
f 15/139/14 14/140/14 33/102/14
f 14/140/13 13/141/13 33/102/13
f 13/141/12 12/142/12 33/102/12
f 12/142/65 11/143/65 10/144/65
f 33/102/66 12/142/66 10/144/66
f 10/144/9 9/145/9 33/102/9
f 9/145/8 8/146/8 33/102/8
f 8/146/7 7/147/7 33/102/7
f 7/147/6 6/148/6 33/102/6
f 6/148/5 5/149/5 33/102/5
f 5/149/67 4/150/67 3/151/67
f 2/152/1 1/153/1 33/102/1
f 1/153/33 32/100/33 33/102/33
f 5/149/68 3/151/68 33/102/68
f 3/151/2 2/152/2 33/102/2
f 23/154/22 22/132/22 33/102/22
f 25/155/24 24/156/24 33/102/24
f 24/156/23 23/154/23 33/102/23
f 27/157/26 26/158/26 33/102/26
f 26/158/25 25/155/25 33/102/25
f 29/159/28 28/160/28 33/102/28
f 28/160/27 27/157/27 33/102/27
f 31/101/30 30/161/30 33/102/30
f 30/161/29 29/159/29 33/102/29
